<?xml version="1.0" encoding="UTF-8" standalone="no"?>
<!-- Created with Inkscape (http://www.inkscape.org/) -->

<svg
   version="1.1"
   id="svg48"
   width="90.903"
   height="99.999725"
   viewBox="0 0 90.902983 99.999735"
   xmlns="http://www.w3.org/2000/svg"
   xmlns:svg="http://www.w3.org/2000/svg">
  <defs
     id="defs52" />
  <g
     id="g54"
     transform="translate(-66.815841,-76.957593)">
    <g
       id="g346"
       transform="matrix(0.45194442,0,0,0.44597592,38.812001,47.078986)">
      <path
         style="display:inline;fill:#d0d0d0;fill-opacity:1"
         d="m 158.87244,265.25 c -1.24387,-1.58606 -1.2085,-1.62143 0.37756,-0.37756 1.66575,1.30637 2.19548,2.12756 1.37244,2.12756 -0.20765,0 -0.99515,-0.7875 -1.75,-1.75 z m 47.22795,-15.95452 c 0.72815,-1.21249 1.53915,-1.98927 1.80223,-1.72619 0.26308,0.26308 -0.33267,1.25511 -1.3239,2.20452 -1.72194,1.64929 -1.74325,1.62798 -0.47833,-0.47833 z m 24.35849,-5.36201 c -0.36253,-0.58659 -0.44468,-1.281 -0.18255,-1.54313 0.26212,-0.26213 0.74306,0.21781 1.06875,1.06653 0.67618,1.76211 0.0999,2.07206 -0.8862,0.4766 z M 170.75,242.33772 c 0.6875,-0.27741 1.8125,-0.27741 2.5,0 0.6875,0.27741 0.125,0.50439 -1.25,0.50439 -1.375,0 -1.9375,-0.22698 -1.25,-0.50439 z m 29.0625,-0.0208 c 0.72187,-0.28887 1.58437,-0.25335 1.91667,0.0789 0.33229,0.33229 -0.25834,0.56864 -1.3125,0.52522 -1.16495,-0.048 -1.4019,-0.28494 -0.60417,-0.60416 z m 6.05994,-6.06689 c -1.24387,-1.58606 -1.2085,-1.62143 0.37756,-0.37756 0.9625,0.75485 1.75,1.54235 1.75,1.75 0,0.82304 -0.82119,0.29331 -2.12756,-1.37244 z M 245.232,229 c 0,-1.925 0.2058,-2.7125 0.45733,-1.75 0.25152,0.9625 0.25152,2.5375 0,3.5 -0.25153,0.9625 -0.45733,0.175 -0.45733,-1.75 z M 228,217.5 c 1.29175,-1.375 2.57363,-2.5 2.84863,-2.5 0.275,0 -0.55688,1.125 -1.84863,2.5 -1.29175,1.375 -2.57363,2.5 -2.84863,2.5 -0.275,0 0.55688,-1.125 1.84863,-2.5 z m -48.12756,-4.25 c -1.24387,-1.58606 -1.2085,-1.62143 0.37756,-0.37756 0.9625,0.75485 1.75,1.54235 1.75,1.75 0,0.82304 -0.82119,0.29331 -2.12756,-1.37244 z m -48.79349,-27.83333 c 0.048,-1.16495 0.28494,-1.4019 0.60416,-0.60417 0.28887,0.72187 0.25335,1.58437 -0.0789,1.91667 -0.3323,0.33229 -0.56864,-0.25834 -0.52522,-1.3125 z m -19,-2 c 0.048,-1.16495 0.28494,-1.4019 0.60416,-0.60417 0.28887,0.72187 0.25335,1.58437 -0.0789,1.91667 -0.3323,0.33229 -0.56864,-0.25834 -0.52522,-1.3125 z M 120,170.62244 c 0,-0.20765 0.7875,-0.99515 1.75,-1.75 1.58606,-1.24387 1.62143,-1.2085 0.37756,0.37756 C 120.82119,170.91575 120,171.44548 120,170.62244 Z m -20.492921,-7.61099 c -0.350339,-0.56686 0.05106,-0.7345 0.940981,-0.39301 1.73242,0.66479 2.04939,1.38156 0.61096,1.38156 -0.51754,0 -1.215916,-0.44485 -1.551941,-0.98855 z M 72.404988,151.75 70.5,149.5 l 2.25,1.90499 C 74.864445,153.19521 75.455241,154 74.654988,154 c -0.189757,0 -1.202257,-1.0125 -2.25,-2.25 z m 160.673962,-9.33333 c 0.048,-1.16495 0.28494,-1.4019 0.60416,-0.60417 0.28887,0.72187 0.25335,1.58437 -0.0789,1.91667 -0.3323,0.33229 -0.56864,-0.25834 -0.52522,-1.3125 z M 214.87244,99.25 c -1.24387,-1.586056 -1.2085,-1.621426 0.37756,-0.377555 1.66575,1.306365 2.19548,2.127555 1.37244,2.127555 -0.20765,0 -0.99515,-0.7875 -1.75,-1.75 z"
         id="path232" />
      <path
         style="display:inline;fill:#b9b9b9;fill-opacity:1"
         d="M 148.40499,267.75 146.5,265.5 l 2.25,1.90499 c 2.11444,1.79022 2.70524,2.59501 1.90499,2.59501 -0.18976,0 -1.20226,-1.0125 -2.25,-2.25 z m 53.67396,-9.33333 c 0.048,-1.16495 0.28494,-1.4019 0.60416,-0.60417 0.28887,0.72187 0.25335,1.58438 -0.0789,1.91667 -0.3323,0.33229 -0.56864,-0.25834 -0.52522,-1.3125 z m -5.26645,-16.09978 c 0.72187,-0.28887 1.58437,-0.25335 1.91667,0.0789 0.33229,0.33229 -0.25834,0.56864 -1.3125,0.52522 -1.16495,-0.048 -1.4019,-0.28494 -0.60417,-0.60416 z m 1,-11 c 0.72187,-0.28887 1.58437,-0.25335 1.91667,0.0789 0.33229,0.33229 -0.25834,0.56864 -1.3125,0.52522 -1.16495,-0.048 -1.4019,-0.28494 -0.60417,-0.60416 z M 245.19495,223.5 c 0.0204,-1.65 0.2445,-2.20394 0.49804,-1.23097 0.25354,0.97297 0.23687,2.32297 -0.0371,3 -0.27393,0.67703 -0.48137,-0.11903 -0.46099,-1.76903 z m 14.884,-29.08333 c 0.048,-1.16495 0.28494,-1.4019 0.60416,-0.60417 0.28887,0.72187 0.25335,1.58437 -0.0789,1.91667 -0.33229,0.33229 -0.56864,-0.25834 -0.52522,-1.3125 z M 176.26903,82.307009 c 0.97297,-0.253543 2.32297,-0.236869 3,0.03705 0.67703,0.273923 -0.11903,0.481368 -1.76903,0.460988 -1.65,-0.02038 -2.20394,-0.244498 -1.23097,-0.498042 z"
         id="path230" />
      <path
         style="display:inline;fill:#a3a3a3;fill-opacity:1"
         d="m 176.75,242.33772 c 0.6875,-0.27741 1.8125,-0.27741 2.5,0 0.6875,0.27741 0.125,0.50439 -1.25,0.50439 -1.375,0 -1.9375,-0.22698 -1.25,-0.50439 z m 83.32895,-50.92105 c 0.048,-1.16495 0.28494,-1.4019 0.60416,-0.60417 0.28887,0.72187 0.25335,1.58437 -0.0789,1.91667 -0.33229,0.33229 -0.56864,-0.25834 -0.52522,-1.3125 z M 207.8125,158.31689 c 0.72187,-0.28887 1.58437,-0.25335 1.91667,0.0789 0.33229,0.33229 -0.25834,0.56864 -1.3125,0.52522 -1.16495,-0.048 -1.4019,-0.28494 -0.60417,-0.60416 z m -96,-43 c 0.72187,-0.28887 1.58437,-0.25335 1.91667,0.0789 0.33229,0.3323 -0.25834,0.56864 -1.3125,0.52522 -1.16495,-0.048 -1.4019,-0.28494 -0.60417,-0.60416 z m 7.45653,-0.01 c 0.97297,-0.25354 2.32297,-0.23687 3,0.037 0.67703,0.27393 -0.11903,0.48137 -1.76903,0.46099 -1.65,-0.0204 -2.20394,-0.2445 -1.23097,-0.49804 z"
         id="path228" />
      <path
         style="display:inline;fill:#8c8c8c;fill-opacity:1"
         d="m 184.25,286.28375 c 1.5125,-0.22913 3.9875,-0.22913 5.5,0 1.5125,0.22912 0.275,0.41659 -2.75,0.41659 -3.025,0 -4.2625,-0.18747 -2.75,-0.41659 z m 1.5,-26.94603 c 0.6875,-0.27741 1.8125,-0.27741 2.5,0 0.6875,0.27741 0.125,0.50439 -1.25,0.50439 -1.375,0 -1.9375,-0.22698 -1.25,-0.50439 z m 6.0625,-17.02083 c 0.72187,-0.28887 1.58437,-0.25335 1.91667,0.0789 0.33229,0.33229 -0.25834,0.56864 -1.3125,0.52522 -1.16495,-0.048 -1.4019,-0.28494 -0.60417,-0.60416 z M 224.28601,235.5 c 0.008,-2.75 0.20172,-3.75631 0.43157,-2.23625 0.22986,1.52006 0.22371,3.77006 -0.0136,5 -0.23736,1.22994 -0.42542,-0.0137 -0.41792,-2.76375 z m -96.20706,-0.0833 c 0.048,-1.16495 0.28494,-1.4019 0.60416,-0.60417 0.28887,0.72187 0.25335,1.58437 -0.0789,1.91667 -0.3323,0.33229 -0.56864,-0.25834 -0.52522,-1.3125 z m 85.73355,-45.09978 c 0.72187,-0.28887 1.58437,-0.25335 1.91667,0.0789 0.33229,0.33229 -0.25834,0.56864 -1.3125,0.52522 -1.16495,-0.048 -1.4019,-0.28494 -0.60417,-0.60416 z m 46.26645,-1.90022 c 0.048,-1.16495 0.28494,-1.4019 0.60416,-0.60417 0.28887,0.72187 0.25335,1.58437 -0.0789,1.91667 -0.33229,0.33229 -0.56864,-0.25834 -0.52522,-1.3125 z M 157.8125,179.31689 c 0.72187,-0.28887 1.58437,-0.25335 1.91667,0.0789 0.33229,0.33229 -0.25834,0.56864 -1.3125,0.52522 -1.16495,-0.048 -1.4019,-0.28494 -0.60417,-0.60416 z m 55.9375,0.0208 c 0.6875,-0.27741 1.8125,-0.27741 2.5,0 0.6875,0.27741 0.125,0.50439 -1.25,0.50439 -1.375,0 -1.9375,-0.22698 -1.25,-0.50439 z m -100,-60.04345 c 1.2375,-0.23836 3.2625,-0.23836 4.5,0 1.2375,0.23835 0.225,0.43337 -2.25,0.43337 -2.475,0 -3.4875,-0.19502 -2.25,-0.43337 z m 1,-3.95655 c 0.6875,-0.27741 1.8125,-0.27741 2.5,0 0.6875,0.27741 0.125,0.50439 -1.25,0.50439 -1.375,0 -1.9375,-0.22698 -1.25,-0.50439 z m 60.51903,-30.030711 c 0.97297,-0.253543 2.32297,-0.236869 3,0.03705 0.67703,0.273923 -0.11903,0.481368 -1.76903,0.460988 -1.65,-0.02038 -2.20394,-0.244498 -1.23097,-0.498042 z"
         id="path226" />
      <path
         style="display:inline;fill:#767676;fill-opacity:1"
         d="m 188.8125,242.31689 c 0.72187,-0.28887 1.58437,-0.25335 1.91667,0.0789 0.33229,0.33229 -0.25834,0.56864 -1.3125,0.52522 -1.16495,-0.048 -1.4019,-0.28494 -0.60417,-0.60416 z M 128.25218,230.5 c 0.0111,-2.2 0.21589,-2.98225 0.45508,-1.73834 0.23919,1.24391 0.23011,3.04391 -0.0202,4 -0.25029,0.95609 -0.446,-0.0617 -0.4349,-2.26166 z M 243.15789,186 c 0,-1.375 0.22698,-1.9375 0.50439,-1.25 0.27741,0.6875 0.27741,1.8125 0,2.5 -0.27741,0.6875 -0.50439,0.125 -0.50439,-1.25 z m -37.5448,-6.18298 c 0.28881,-0.4673 0.94401,-0.59075 1.45601,-0.27431 1.30838,0.80862 1.16106,1.12396 -0.52511,1.12396 -0.80081,0 -1.21971,-0.38234 -0.9309,-0.84965 z M 104.50708,165.01145 c -0.35034,-0.56686 0.0511,-0.7345 0.94098,-0.39301 1.73242,0.66479 2.04939,1.38156 0.61096,1.38156 -0.51754,0 -1.21592,-0.44485 -1.55194,-0.98855 z m 16.30542,-45.69456 c 0.72187,-0.28887 1.58437,-0.25335 1.91667,0.0789 0.33229,0.3323 -0.25834,0.56864 -1.3125,0.52522 -1.16495,-0.048 -1.4019,-0.28494 -0.60417,-0.60416 z M 150,118 c -1.2819,-0.82843 -1.24555,-0.9716 0.25,-0.98469 0.9625,-0.008 1.75,0.43469 1.75,0.98469 0,1.21961 -0.11279,1.21961 -2,0 z"
         id="path224" />
      <path
         style="display:inline;fill:#606060;fill-opacity:1"
         d="m 184.75,242.33772 c 0.6875,-0.27741 1.8125,-0.27741 2.5,0 0.6875,0.27741 0.125,0.50439 -1.25,0.50439 -1.375,0 -1.9375,-0.22698 -1.25,-0.50439 z M 166,237.62244 c 0,-0.20765 0.7875,-0.99515 1.75,-1.75 1.58606,-1.24387 1.62143,-1.2085 0.37756,0.37756 C 166.82119,237.91575 166,238.44548 166,237.62244 Z m -23.92105,-2.20577 c 0.048,-1.16495 0.28494,-1.4019 0.60416,-0.60417 0.28887,0.72187 0.25335,1.58437 -0.0789,1.91667 -0.3323,0.33229 -0.56864,-0.25834 -0.52522,-1.3125 z M 128.19495,224.5 c 0.0204,-1.65 0.2445,-2.20394 0.49804,-1.23097 0.25354,0.97297 0.23687,2.32297 -0.0371,3 -0.27393,0.67703 -0.48137,-0.11903 -0.46099,-1.76903 z m -15.116,-30.08333 c 0.048,-1.16495 0.28494,-1.4019 0.60416,-0.60417 0.28887,0.72187 0.25335,1.58437 -0.0789,1.91667 -0.3323,0.33229 -0.56864,-0.25834 -0.52522,-1.3125 z m 147,-11 c 0.048,-1.16495 0.28494,-1.4019 0.60416,-0.60417 0.28887,0.72187 0.25335,1.58437 -0.0789,1.91667 -0.33229,0.33229 -0.56864,-0.25834 -0.52522,-1.3125 z m -75.80992,-16.10966 c 0.97297,-0.25354 2.32297,-0.23687 3,0.0371 0.67703,0.27393 -0.11903,0.48137 -1.76903,0.46099 -1.65,-0.0204 -2.20394,-0.2445 -1.23097,-0.49804 z m -16.50112,-16.03174 c 1.79735,-0.22256 4.49735,-0.21797 6,0.0102 1.50265,0.22818 0.0321,0.41027 -3.26791,0.40466 -3.3,-0.006 -4.52944,-0.1923 -2.73209,-0.41486 z M 107.8125,119.31689 c 0.72187,-0.28887 1.58437,-0.25335 1.91667,0.0789 0.33229,0.3323 -0.25834,0.56864 -1.3125,0.52522 -1.16495,-0.048 -1.4019,-0.28494 -0.60417,-0.60416 z"
         id="path222" />
      <path
         style="display:inline;fill:#494949;fill-opacity:1"
         d="m 227,264.62244 c 0,-0.20765 0.7875,-0.99515 1.75,-1.75 1.58606,-1.24387 1.62143,-1.2085 0.37756,0.37756 C 227.82119,264.91575 227,265.44548 227,264.62244 Z m -63.1875,-23.30555 c 0.72187,-0.28887 1.58437,-0.25335 1.91667,0.0789 0.33229,0.33229 -0.25834,0.56864 -1.3125,0.52522 -1.16495,-0.048 -1.4019,-0.28494 -0.60417,-0.60416 z m 44.52083,-0.7729 c 0,-0.80081 0.38234,-1.21971 0.84965,-0.9309 0.4673,0.28881 0.59075,0.94401 0.27431,1.45601 -0.80862,1.30838 -1.12396,1.16106 -1.12396,-0.52511 z M 230.15789,232 c 0,-1.375 0.22698,-1.9375 0.50439,-1.25 0.27741,0.6875 0.27741,1.8125 0,2.5 -0.27741,0.6875 -0.50439,0.125 -0.50439,-1.25 z m -117,-41 c 0,-1.375 0.22698,-1.9375 0.50439,-1.25 0.27741,0.6875 0.27741,1.8125 0,2.5 -0.27741,0.6875 -0.50439,0.125 -0.50439,-1.25 z m 7.65461,-13.68311 c 0.72187,-0.28887 1.58437,-0.25335 1.91667,0.0789 0.33229,0.33229 -0.25834,0.56864 -1.3125,0.52522 -1.16495,-0.048 -1.4019,-0.28494 -0.60417,-0.60416 z m 58.9375,-9.97917 c 0.6875,-0.27741 1.8125,-0.27741 2.5,0 0.6875,0.27741 0.125,0.50439 -1.25,0.50439 -1.375,0 -1.9375,-0.22698 -1.25,-0.50439 z m 9,0 c 0.6875,-0.27741 1.8125,-0.27741 2.5,0 0.6875,0.27741 0.125,0.50439 -1.25,0.50439 -1.375,0 -1.9375,-0.22698 -1.25,-0.50439 z m -12.9375,-13.02083 c 0.72187,-0.28887 1.58437,-0.25335 1.91667,0.0789 0.33229,0.33229 -0.25834,0.56864 -1.3125,0.52522 -1.16495,-0.048 -1.4019,-0.28494 -0.60417,-0.60416 z M 191,154.60699 c 0,-0.21616 0.69837,-0.661 1.55194,-0.98855 0.88992,-0.34149 1.29132,-0.17385 0.94098,0.39301 C 192.90566,154.96166 191,155.4169 191,154.60699 Z M 258.28601,142.5 c 0.008,-2.75 0.20172,-3.75631 0.43157,-2.23625 0.22986,1.52006 0.22371,3.77006 -0.0136,5 -0.23736,1.22994 -0.42542,-0.0137 -0.41792,-2.76375 z M 182.8125,77.316886 c 0.72187,-0.288871 1.58437,-0.253344 1.91667,0.07895 0.33229,0.332292 -0.25834,0.568641 -1.3125,0.52522 -1.16495,-0.04798 -1.4019,-0.284941 -0.60417,-0.604167 z"
         id="path220" />
      <path
         id="path218"
         style="display:inline;fill:#333333;fill-opacity:1"
         d="m 173,283.68675 c -11.07991,-4.56447 -23.81289,-14.70639 -33.03758,-26.3147 -8.63661,-10.86826 -10.35122,-15.06737 -10.95301,-26.82413 l -0.50941,-9.95209 -3.46574,-0.0479 c -3.43491,-0.0475 -3.49809,-0.13058 -7.10246,-9.34032 -2.97171,-7.5932 -3.75787,-11.14114 -4.29928,-19.4026 -0.79229,-12.08978 0.3693,-15.18555 5.3675,-14.305 2.51672,0.44339 3.55178,-0.14332 7.16149,-4.05939 5.75796,-6.24665 15.58568,-11.82929 26.21596,-14.89197 9.35499,-2.69526 30.34283,-5.11775 36.81635,-4.24947 2.09319,0.28076 4.03696,0.13644 4.31949,-0.32071 0.84459,-1.36658 -10.15936,-2.44824 -24.01331,-2.36045 -20.63563,0.13077 -33.21456,4.15405 -44.8662,14.35013 -3.1626,2.76753 -6.6795,5.03186 -7.81534,5.03186 -3.64713,0 -22.812779,-6.8958 -30.990881,-11.15051 -15.027067,-7.81794 -20.823447,-16.33486 -17.334517,-25.4705 3.009512,-7.88029 11.969189,-13.18588 27.775672,-16.44774 5.077196,-1.04774 13.108466,-1.91089 17.847276,-1.91811 l 8.61601,-0.0131 2.22584,-6.25 c 7.4929,-21.039548 24.61208,-31.767924 51.24059,-32.11183 9.27841,-0.11983 10.75924,-0.370455 11.15638,-1.88817 0.85199,-3.255933 11.12651,-1.652008 11.81091,1.843766 0.23433,1.196936 3.47319,2.719872 10.83426,5.094352 29.07111,9.377548 41.36505,20.703632 46.57933,42.912332 1.81899,7.74746 1.48531,31.06779 -0.5655,39.52172 l -1.12127,4.62216 -7.32185,-2.84308 c -10.9018,-4.23318 -25.72646,-7.82469 -35.35198,-8.56456 -9.47239,-0.72811 -11.08578,0.89267 -2.07806,2.08758 6.09462,0.80848 22.63715,5.94939 28.35933,8.81321 2.2,1.10105 6.09527,3.49196 8.65616,5.31313 2.96008,2.10506 5.38164,3.12151 6.64777,2.79041 1.09538,-0.28645 2.98381,0.0102 4.1965,0.65921 2.12434,1.13692 2.18765,1.60603 1.73265,12.8399 -0.42061,10.38468 -0.86079,12.64416 -4.02491,20.65987 l -3.55265,9 -3.57776,-0.11406 L 245,220.27192 v 8.35334 c 0,10.06583 -1.8865,15.66866 -8.28289,24.59992 -9.58215,13.37952 -26.5624,27.30307 -38.00206,31.16113 -7.17014,2.41816 -18.92324,2.09844 -25.71505,-0.69951 z m 26.5685,-9.15174 c 10.83939,-3.22002 18.13647,-10.12461 22.60609,-21.39019 1.87119,-4.71627 2.26267,-7.75267 2.37989,-18.45885 l 0.1403,-12.81402 5.05469,-5.18598 C 238.80816,207.39201 244,196.00893 244,185.44178 c 0,-3.81735 -0.29177,-4.2696 -3.76494,-5.83578 -5.48692,-2.47426 -20.66697,-4.52105 -25.49129,-3.43709 -4.04339,0.90848 -9.74377,3.47747 -9.74377,4.39121 0,0.27982 2.22566,0.21352 4.94591,-0.14733 7.15582,-0.94926 13.40138,0.25296 16.57004,3.18957 3.32251,3.0792 2.87785,3.75001 -1.41235,2.13064 -3.06241,-1.15593 -3.38852,-1.06199 -5.26746,1.51739 -3.1235,4.28787 -10.43169,3.46295 -12.03898,-1.35891 -0.25538,-0.76615 -1.80379,-0.41858 -4.68619,1.05191 -2.36763,1.20787 -4.37991,2.05224 -4.47173,1.87637 C 196.83448,185.36307 193,176.75075 193,176.1539 c 0,-0.44098 3.375,-1.86024 7.5,-3.1539 4.125,-1.29366 7.5,-2.68707 7.5,-3.09646 0,-0.4094 -3.0375,-1.11767 -6.75,-1.57395 -12.69502,-1.56025 -38.98116,-0.4349 -36.62064,1.56779 0.47885,0.40626 4.35814,1.79978 8.62064,3.0967 4.2625,1.29692 7.75,2.51664 7.75,2.7105 0,0.39501 -6.07647,12.615 -6.52161,13.11518 -0.15652,0.17587 -2.029,-0.57017 -4.16107,-1.65787 l -3.87648,-1.97764 -2.14475,2.40788 c -2.93761,3.298 -7.63828,3.2207 -10.78753,-0.17739 -2.46726,-2.66222 -5.02221,-2.67496 -8.49683,-0.0423 -1.24228,0.94124 -1.22836,0.71441 0.0842,-1.37239 2.83851,-4.5128 7.51051,-6.19598 15.66597,-5.64396 9.43697,0.63875 8.08316,-1.83219 -2.37686,-4.33822 -4.27399,-1.02397 -21.75402,1.52261 -24.98561,3.64003 -2.5547,1.6739 -2.61785,1.95928 -2.19911,9.9373 0.53521,10.19707 4.10214,18.08315 12.25311,27.09027 l 5.54656,6.12915 0.0119,10.84271 c 0.018,16.46357 3.10038,25.5044 11.25956,33.02526 5.03169,4.63806 7.52095,6.12936 13.22857,7.92515 5.53847,1.74257 20.09454,1.70199 26.0685,-0.0727 z M 171,258.55733 c 0,-2.01116 -0.67459,-4.96117 -1.4991,-6.55559 l -1.4991,-2.89893 3.46698,1.44859 c 4.87844,2.03834 25.97546,1.99659 30.90033,-0.0612 l 3.61336,-1.50976 -1.9875,3.25976 c -1.09312,1.79287 -1.98918,4.63582 -1.99123,6.31767 l -0.004,3.05791 -7.45578,-1.5186 c -7.28083,-1.48296 -16.04003,-0.91653 -21.79422,1.40939 -1.47658,0.59685 -1.75,0.13605 -1.75,-2.94928 z m -5.79132,-17.38919 c -1.80437,-1.16989 6.9654,-9.17569 10.01898,-9.14618 1.24979,0.0121 4.25095,0.91968 6.66925,2.01688 l 4.39691,1.99492 5.3906,-2.01688 C 194.64925,232.9076 197.76317,232 198.60423,232 c 1.98184,0 7.80864,4.45499 9.79813,7.49133 l 1.55126,2.36752 -21.72681,0.0733 c -11.94974,0.0403 -22.3079,-0.30349 -23.01813,-0.76398 z m 15.77408,-18.89277 c -1.35423,-0.94854 -3.5156,-1.58659 -4.80302,-1.41788 C 173.41039,221.2204 170,218.45417 170,215.84501 170,214.49095 170.74507,214 172.8,214 c 1.54,0 3.33703,-0.53703 3.99341,-1.19341 0.92454,-0.92454 1.81444,-0.61963 3.95,1.35341 4.86842,4.49793 7.6443,4.42043 12.90109,-0.36017 1.397,-1.27045 2.37614,-1.57546 2.80902,-0.87504 0.36548,0.59137 1.98796,1.07521 3.6055,1.07521 2.45918,0 2.94098,0.40379 2.94098,2.46482 0,2.90719 -3.13789,4.93314 -6.61206,4.26901 C 195.07457,220.48276 194,220.59271 194,220.97816 194,222.1172 189.12481,224 186.17545,224 c -1.50174,0 -3.83845,-0.77608 -5.19269,-1.72463 z m -38.11538,15.20209 c -0.76545,-8.31092 -1.46136,-11.46328 -2.86488,-12.97746 -1.0196,-1.1 -3.00686,-4.025 -4.41612,-6.5 -3.07612,-5.40241 -3.24769,-4.05422 -1.07189,8.42275 0.97735,5.60457 2.77344,11.18466 5.06418,15.73347 1.95233,3.87681 3.71846,6.87999 3.92472,6.67372 0.20626,-0.20626 -0.0799,-5.31488 -0.63601,-11.35248 z m 90.6116,4.56428 c 2.47391,-4.91253 3.96123,-9.7989 5.0589,-16.62033 0.85513,-5.31414 1.36361,-9.85325 1.12995,-10.08692 -0.23366,-0.23366 -1.57858,1.54387 -2.9887,3.95006 -1.41012,2.40619 -3.24274,4.93831 -4.07248,5.62694 -0.82975,0.68863 -1.73503,3.12775 -2.01175,5.42028 C 229.74577,237.3667 229.09189,249 229.54561,249 c 0.23609,0 2.0061,-3.13122 3.93337,-6.95826 z M 109,166.55547 c 0,-0.24449 -4.76623,-2.7435 -10.59162,-5.55334 C 84.88952,154.48139 76,146.46889 76,140.80453 c 0,-13.79728 39.55035,-19.9253 76.27419,-11.81809 18.54097,4.09314 53.48731,15.491 72.13985,23.52865 1.43069,0.6165 1.71454,0.50198 1.12404,-0.45348 -0.43451,-0.70305 -6.92083,-4.27078 -14.41405,-7.92829 -46.22398,-22.56237 -95.22214,-30.82475 -124.510259,-20.99569 -11.141309,3.73901 -16.595427,9.14626 -16.607182,16.46449 -0.0088,5.48956 3.02486,9.75932 10.627139,14.9572 C 87.473719,159.236 109,168.3395 109,166.55547 Z M 233.36971,149.75 c 0.33164,-1.2375 0.60913,-7.01552 0.61664,-12.84004 0.0312,-24.18377 -8.30699,-40.107205 -25.32414,-48.361614 -17.1358,-8.311966 -40.56435,-8.699012 -55.90834,-0.923621 -5.87105,2.975084 -14.38408,9.812275 -16.00769,12.856485 -0.70605,1.32381 0.53385,0.70108 3.60167,-1.808909 11.08737,-9.071315 24.86274,-13.327774 40.06711,-12.380357 21.57303,1.344261 37.4931,11.433242 43.66266,27.670216 2.56525,6.75118 4.13627,17.42871 3.34284,22.71971 -0.5964,3.97706 -0.82136,4.26921 -2.2909,2.97517 -5.54038,-4.8787 -28.78368,-13.81833 -45.62956,-17.54964 -11.97962,-2.65344 -29.0984,-5.3355 -31.26211,-4.89793 -0.95584,0.1933 4.33711,1.83725 11.76211,3.65323 28.81661,7.04786 50.09815,15.62122 64.5,25.9841 3.85,2.77028 7.28502,5.06304 7.63337,5.09503 0.34835,0.032 0.90471,-0.95433 1.23634,-2.19183 z" />
    </g>
  </g>
</svg>
